<?xml version="1.0" standalone="no"?>
<!DOCTYPE svg PUBLIC "-//W3C//DTD SVG 20010904//EN"
 "http://www.w3.org/TR/2001/REC-SVG-20010904/DTD/svg10.dtd">
<svg version="1.0" xmlns="http://www.w3.org/2000/svg"
 width="1167.000000pt" height="1280.000000pt" viewBox="0 0 1167.000000 1280.000000"
 preserveAspectRatio="xMidYMid meet">
<metadata>
Created by potrace 1.15, written by Peter Selinger 2001-2017
</metadata>
<g transform="translate(0.000000,1280.000000) scale(0.100000,-0.100000)"
fill="#0000FF" stroke="none">
<path d="M7618 12766 c-151 -66 -208 -108 -269 -198 -58 -86 -92 -164 -140
-323 -42 -139 -42 -141 -43 -305 0 -179 6 -214 74 -401 34 -95 234 -474 308
-584 26 -38 62 -99 80 -135 18 -36 64 -102 102 -148 100 -120 171 -243 215
-372 12 -36 38 -91 58 -121 58 -92 155 -311 177 -401 22 -91 26 -214 10 -298
-6 -30 -12 -56 -15 -58 -15 -15 -225 169 -252 221 -8 17 -33 78 -54 136 -64
171 -115 233 -177 210 -32 -12 -44 -5 -104 64 -174 202 -339 271 -566 238 -82
-12 -117 -8 -220 25 -105 34 -221 5 -295 -75 -59 -63 -79 -111 -81 -191 -1
-80 35 -162 93 -212 31 -27 40 -42 45 -83 11 -73 35 -120 108 -210 65 -80 133
-146 221 -218 26 -21 47 -46 47 -56 0 -27 48 -71 108 -98 49 -23 60 -24 155
-18 94 6 108 5 182 -20 44 -14 108 -41 142 -58 82 -43 233 -162 233 -185 0
-28 -39 -93 -107 -181 -75 -96 -80 -99 -263 -191 -80 -41 -183 -96 -230 -124
-228 -134 -514 -246 -875 -342 -138 -37 -144 -37 -385 -44 l-245 -7 -215 -56
c-118 -30 -269 -63 -335 -72 -115 -16 -330 -60 -610 -123 -149 -34 -291 -85
-372 -134 -30 -18 -88 -63 -127 -99 -39 -36 -123 -107 -186 -158 -113 -90
-300 -290 -407 -435 -51 -69 -55 -109 -13 -114 14 -2 32 -10 40 -17 8 -7 32
-16 53 -19 30 -6 46 -2 73 14 19 12 41 19 49 16 28 -10 75 16 109 62 44 60
214 227 223 219 3 -4 -6 -33 -20 -64 -40 -91 -53 -151 -35 -169 23 -23 47 -6
79 58 16 32 46 77 67 99 20 23 69 91 107 153 52 82 82 119 115 141 161 108
517 187 1030 230 41 4 198 6 349 6 151 0 306 4 345 10 112 17 393 92 609 164
436 143 828 217 1178 219 l195 1 46 -40 c77 -68 317 -197 487 -262 80 -30 290
-153 342 -200 22 -20 39 -45 39 -56 0 -25 -78 -166 -129 -233 -20 -26 -56 -62
-79 -79 -36 -25 -53 -30 -100 -30 -53 0 -72 8 -257 106 -110 58 -267 148 -350
199 -172 107 -238 139 -350 168 -126 33 -236 45 -368 40 -117 -4 -126 -6 -220
-47 -55 -23 -124 -48 -155 -55 -32 -8 -100 -24 -152 -36 -124 -28 -198 -65
-291 -142 -42 -35 -85 -68 -94 -73 -17 -10 -15 -16 18 -85 70 -144 104 -428
93 -772 l-7 -196 28 -6 c15 -3 57 -8 93 -11 l65 -6 50 93 c88 165 223 280 395
338 80 27 294 39 381 21 234 -49 407 -259 494 -600 14 -53 25 -108 25 -123 0
-48 14 -30 39 49 34 106 140 315 200 395 128 169 311 258 526 258 185 -1 291
-39 401 -143 171 -161 266 -433 266 -757 -1 -460 -201 -1002 -539 -1458 -51
-70 -55 -77 -49 -115 20 -125 94 -276 167 -342 37 -33 45 -36 78 -30 44 8 147
53 161 70 8 9 7 54 -1 149 -9 106 -9 190 0 369 l12 232 65 162 c35 90 64 165
64 167 0 2 9 25 20 50 l20 47 42 -27 c24 -15 120 -80 214 -145 94 -66 174
-119 178 -119 3 0 33 54 67 121 101 202 178 263 335 264 72 0 85 -3 130 -30
95 -60 136 -175 99 -287 -9 -29 -39 -106 -66 -171 l-49 -117 35 -31 c19 -17
70 -79 113 -137 44 -59 98 -124 122 -146 39 -35 46 -38 90 -34 28 3 81 21 126
44 69 34 85 48 131 109 67 91 125 143 222 199 43 25 91 56 107 69 16 13 56 42
89 64 33 22 79 60 101 84 86 91 121 125 158 153 42 31 42 31 12 136 -9 30 -16
82 -16 115 -1 108 -17 185 -56 259 -34 66 -36 76 -45 210 -5 78 -13 258 -18
400 -5 142 -14 262 -19 265 -5 3 -15 23 -23 44 -14 41 -16 42 -56 26 -54 -21
-403 -139 -411 -139 -13 0 14 108 75 297 30 94 53 182 51 194 -6 44 -51 64
-150 68 -78 3 -485 -19 -895 -48 -68 -5 -137 -5 -155 -2 -33 7 -33 8 -32 62 1
61 25 133 131 402 40 103 80 212 87 241 8 30 18 125 21 213 8 176 -2 267 -40
368 -71 187 -95 245 -120 294 -16 32 -34 96 -45 155 -30 167 -66 243 -169 349
-60 62 -160 137 -236 175 -33 16 -123 48 -200 71 -200 60 -190 55 -248 140
-28 42 -86 121 -130 176 -95 120 -147 220 -198 380 -80 252 -138 406 -217 572
-46 95 -92 194 -103 220 -11 27 -51 95 -88 153 -38 58 -97 150 -133 205 -36
56 -114 157 -174 225 -60 69 -154 181 -209 249 -279 346 -332 437 -351 601 -8
77 12 128 66 164 44 29 99 94 128 152 11 22 49 76 85 120 35 43 67 87 71 98
18 51 -63 63 -116 17 -45 -39 -150 -93 -160 -83 -34 34 -20 132 22 162 12 8
45 33 73 55 29 22 64 45 78 52 14 6 51 30 83 54 50 38 57 46 54 73 -3 30 -4
31 -55 31 -28 0 -55 4 -59 8 -14 14 -50 6 -126 -27z"/>
<path d="M3050 9575 c-248 -68 -482 -306 -718 -730 -246 -443 -451 -1170 -557
-1966 -44 -333 -71 -685 -91 -1161 -3 -87 -9 -158 -13 -158 -5 0 -30 28 -57
62 -65 82 -213 203 -310 255 -44 23 -119 54 -169 69 -79 23 -107 27 -225 26
-150 0 -245 -19 -357 -72 -182 -85 -309 -235 -404 -478 -196 -500 -196 -1189
0 -1643 114 -263 240 -408 436 -504 111 -54 220 -79 345 -79 126 0 234 25 350
81 172 82 282 221 342 428 20 71 23 102 23 270 0 105 -4 207 -8 228 -11 50
-39 77 -80 77 -49 0 -77 -24 -77 -67 0 -133 -72 -443 -131 -562 -70 -143 -219
-271 -314 -271 -39 0 -119 36 -173 79 -125 97 -245 335 -322 641 -63 249 -74
340 -75 635 0 274 6 345 46 543 68 337 215 552 378 552 97 0 233 -66 378 -184
103 -84 149 -133 287 -306 94 -118 116 -152 120 -185 3 -22 7 -175 10 -340 7
-370 27 -715 61 -1030 14 -132 39 -373 55 -535 30 -304 50 -428 75 -467 28
-42 73 -57 170 -58 78 0 96 3 134 25 24 14 53 37 64 51 19 26 19 44 8 1100
-12 1200 -14 1899 -5 1924 4 9 41 42 83 75 119 90 184 153 295 286 229 274
497 688 686 1059 265 522 420 1089 420 1535 -1 415 -103 671 -307 772 -64 31
-73 33 -193 35 -86 2 -142 -2 -180 -12z m198 -174 c105 -77 179 -254 207 -501
43 -364 -12 -787 -155 -1205 -186 -539 -596 -1240 -960 -1638 -92 -100 -92
-100 -85 55 20 440 54 823 106 1183 123 867 367 1591 663 1969 70 89 148 166
169 166 8 0 32 -13 55 -29z"/>
<path d="M5853 7085 c-137 -68 -387 -411 -563 -770 -95 -194 -175 -397 -271
-687 -45 -137 -85 -248 -89 -248 -4 0 -11 27 -14 61 -24 208 -103 603 -133
662 -33 65 -181 83 -285 35 -82 -38 -84 -48 -70 -353 7 -135 21 -354 32 -487
l21 -242 -21 -285 c-54 -757 -110 -1053 -236 -1255 -34 -53 -38 -57 -50 -41
-20 27 -51 128 -73 235 -19 90 -29 176 -66 551 -17 176 -48 342 -70 376 -21
31 -51 45 -112 54 -60 8 -168 -10 -207 -36 -38 -25 -46 -65 -46 -238 0 -130
-5 -182 -25 -282 -80 -396 -239 -707 -390 -765 -65 -25 -193 88 -264 234 -212
435 -175 1359 77 1897 39 83 45 91 65 84 45 -18 211 -254 291 -414 59 -116 82
-141 134 -141 56 0 74 18 82 80 25 198 -60 426 -219 587 -94 94 -130 108 -281
108 -72 0 -143 -5 -167 -13 -67 -20 -158 -88 -209 -155 -90 -118 -204 -397
-249 -604 -16 -76 -17 -118 -6 -635 14 -616 11 -588 90 -747 128 -252 332
-394 570 -393 228 1 402 130 532 395 18 37 36 67 39 67 4 0 23 -42 44 -94 94
-237 221 -335 421 -324 155 8 233 68 316 242 43 91 119 315 119 352 0 8 4 14
8 14 5 0 18 -46 29 -103 30 -149 43 -174 99 -199 66 -29 191 -23 261 13 82 42
81 33 53 555 -26 495 -27 480 31 769 125 618 352 1237 601 1633 89 143 168
246 180 234 13 -13 -18 -306 -102 -977 -91 -727 -101 -828 -107 -1170 -12
-645 55 -1007 238 -1276 75 -111 200 -197 318 -219 79 -15 208 -12 276 5 81
21 212 88 310 157 44 32 87 58 96 58 9 0 46 -14 81 -30 83 -39 182 -60 285
-60 293 0 564 109 828 333 50 42 93 76 96 74 4 -1 35 -40 70 -87 137 -181 301
-270 559 -301 229 -28 521 44 721 177 152 101 303 282 407 489 74 148 333 772
339 816 5 35 3 39 -21 45 -35 8 -70 -1 -100 -29 -14 -12 -90 -148 -169 -302
-219 -428 -337 -613 -487 -766 -124 -126 -260 -207 -405 -239 -201 -45 -388
164 -470 528 -16 70 -21 111 -15 125 5 12 42 66 82 119 267 353 445 766 504
1168 21 148 15 347 -16 470 -31 126 -100 262 -169 330 -66 67 -119 88 -237 97
-146 10 -259 -32 -365 -137 -228 -226 -362 -785 -376 -1572 -6 -333 1 -429 43
-606 13 -57 24 -112 24 -122 0 -31 -216 -215 -366 -312 -94 -60 -232 -117
-325 -133 -59 -11 -116 11 -169 64 -150 150 -210 492 -197 1121 9 374 39 647
113 1015 42 212 118 464 144 480 18 11 42 -10 101 -87 73 -98 116 -180 185
-360 80 -210 81 -212 130 -216 59 -4 67 10 72 136 12 314 -129 648 -314 738
-72 35 -206 44 -308 20 -229 -54 -349 -217 -466 -631 -85 -300 -125 -564 -142
-935 -27 -596 41 -1045 192 -1265 17 -25 29 -52 26 -60 -17 -44 -287 -205
-344 -205 -41 0 -120 73 -159 147 -100 189 -146 501 -146 998 0 318 7 432 58
975 56 591 59 649 59 995 1 350 -7 435 -53 586 -32 101 -73 129 -190 129 -52
0 -79 -6 -118 -25z m2936 -976 c41 -50 103 -184 126 -269 26 -98 31 -321 10
-455 -21 -138 -72 -323 -125 -456 -65 -163 -226 -459 -251 -459 -12 0 -11 434
1 640 28 451 78 763 151 948 45 112 41 110 88 51z"/>
<path d="M7321 5664 c-19 -96 -17 -100 64 -120 l24 -6 -30 83 c-17 46 -34 88
-38 92 -5 4 -13 -18 -20 -49z"/>
<path d="M8030 3369 c-105 -74 -202 -128 -299 -165 l-74 -29 -29 -64 c-39 -88
-86 -223 -106 -306 -15 -61 -16 -123 -14 -476 4 -441 -1 -497 -54 -683 -33
-116 -48 -144 -82 -152 -34 -8 -206 -98 -250 -131 -58 -44 -80 -124 -48 -184
7 -14 30 -69 50 -121 21 -53 57 -126 81 -162 58 -88 89 -183 82 -246 -8 -69
-54 -151 -144 -260 -97 -116 -119 -152 -133 -214 -9 -40 -8 -53 5 -72 30 -46
151 -56 240 -18 50 20 167 100 229 155 59 52 106 123 106 160 0 16 23 61 56
110 58 88 159 286 200 394 13 35 37 118 54 184 26 104 31 143 35 298 9 339 11
349 113 609 49 126 95 247 102 269 7 22 28 78 47 125 20 47 70 180 113 295 42
116 88 232 102 259 l25 49 7 -91 c8 -113 31 -200 108 -417 81 -226 157 -402
295 -685 124 -254 183 -384 183 -405 0 -7 -29 -36 -65 -64 -91 -72 -108 -108
-103 -225 4 -111 25 -161 146 -344 107 -162 121 -214 84 -332 -15 -45 -27 -62
-72 -98 -162 -128 -200 -171 -200 -228 0 -24 9 -40 34 -62 31 -27 44 -31 121
-37 70 -6 95 -4 133 10 62 23 227 110 269 142 52 40 159 178 211 273 l47 85
-3 190 c-3 229 -15 382 -37 490 -32 156 -65 276 -96 342 -67 147 -121 350
-224 848 -97 471 -106 519 -112 648 -6 114 -7 118 -27 113 -12 -3 -74 -10
-139 -17 -316 -31 -611 59 -818 249 -31 29 -58 52 -60 51 -2 0 -42 -27 -89
-60z"/>
<path d="M4858 3131 c-73 -24 -116 -51 -166 -105 -64 -69 -86 -120 -87 -196 0
-86 43 -176 124 -258 102 -103 222 -148 431 -161 69 -4 135 -13 147 -19 65
-35 28 -296 -62 -447 -139 -232 -512 -415 -846 -415 -156 0 -371 41 -401 77
-14 18 -6 50 47 176 53 129 71 224 56 306 -7 36 -27 92 -44 125 -73 137 -287
224 -412 167 -52 -23 -110 -89 -143 -160 -55 -117 -30 -223 104 -457 36 -63
64 -122 62 -132 -13 -66 -352 -94 -713 -58 -209 21 -467 21 -576 0 -287 -54
-549 -216 -658 -408 -35 -61 -71 -188 -71 -252 0 -59 31 -152 68 -206 86 -125
265 -195 399 -157 161 45 235 296 124 423 -24 27 -86 56 -121 56 -27 0 -30 -3
-30 -30 0 -32 12 -47 89 -108 37 -30 41 -38 41 -77 0 -32 -7 -51 -25 -74 -36
-42 -82 -54 -184 -49 -138 7 -200 51 -216 154 -8 57 11 156 43 222 54 111 221
231 367 266 103 25 449 38 793 30 432 -9 568 6 751 84 l85 36 45 -27 c246
-147 465 -206 716 -194 287 14 496 96 661 261 135 136 271 364 314 531 27 107
42 246 34 321 -11 105 8 120 209 165 72 16 217 52 322 79 227 59 343 80 439
80 126 0 251 -46 291 -107 40 -60 12 -157 -64 -226 -65 -59 -89 -67 -196 -67
-52 0 -95 -4 -95 -8 0 -13 91 -116 114 -129 31 -18 64 -16 134 9 79 28 164 96
217 172 36 53 40 63 39 119 -3 211 -185 357 -445 357 -132 0 -245 -24 -469
-100 -262 -88 -444 -140 -492 -140 -45 0 -63 22 -85 107 -24 92 -72 171 -153
253 -176 176 -355 243 -512 191z m57 -131 c25 -12 68 -45 98 -74 64 -64 237
-335 237 -373 l0 -26 -74 6 c-159 14 -308 84 -399 188 -111 127 -117 237 -15
288 50 25 87 23 153 -9z m-1144 -747 c83 -49 114 -278 59 -437 -29 -86 -46
-109 -70 -96 -59 32 -198 292 -207 387 -5 54 -3 62 23 92 32 38 95 70 137 71
16 0 42 -8 58 -17z"/>
</g>
</svg>
